<mxfile host="app.diagrams.net" agent="Mozilla/5.0 (Windows NT 10.0; Win64; x64) AppleWebKit/537.36 (KHTML, like Gecko) Chrome/130.0.0.0 Safari/537.36" version="24.7.16">
  <diagram name="Page-1" id="_Wn-mgjXsQgP5nf4Prmj">
    <mxGraphModel dx="1432" dy="1823" grid="1" gridSize="10" guides="1" tooltips="1" connect="1" arrows="1" fold="1" page="1" pageScale="1" pageWidth="850" pageHeight="1100" math="0" shadow="0">
      <root>
        <mxCell id="0" />
        <mxCell id="1" parent="0" />
        <mxCell id="Wnv17UuATDxq_czJeIxD-6" value="" style="edgeStyle=orthogonalEdgeStyle;rounded=0;orthogonalLoop=1;jettySize=auto;html=1;" edge="1" parent="1" source="Wnv17UuATDxq_czJeIxD-2" target="Wnv17UuATDxq_czJeIxD-4">
          <mxGeometry relative="1" as="geometry" />
        </mxCell>
        <mxCell id="Wnv17UuATDxq_czJeIxD-2" value="Download" style="rounded=0;whiteSpace=wrap;html=1;" vertex="1" parent="1">
          <mxGeometry x="200" y="50" width="120" height="60" as="geometry" />
        </mxCell>
        <mxCell id="Wnv17UuATDxq_czJeIxD-5" value="" style="edgeStyle=orthogonalEdgeStyle;rounded=0;orthogonalLoop=1;jettySize=auto;html=1;" edge="1" parent="1" source="Wnv17UuATDxq_czJeIxD-3" target="Wnv17UuATDxq_czJeIxD-2">
          <mxGeometry relative="1" as="geometry" />
        </mxCell>
        <mxCell id="Wnv17UuATDxq_czJeIxD-3" value="Polygon.io&lt;div&gt;Flat Files&lt;/div&gt;" style="ellipse;whiteSpace=wrap;html=1;aspect=fixed;" vertex="1" parent="1">
          <mxGeometry x="40" y="40" width="80" height="80" as="geometry" />
        </mxCell>
        <mxCell id="Wnv17UuATDxq_czJeIxD-10" value="" style="edgeStyle=orthogonalEdgeStyle;rounded=0;orthogonalLoop=1;jettySize=auto;html=1;" edge="1" parent="1" source="Wnv17UuATDxq_czJeIxD-4" target="Wnv17UuATDxq_czJeIxD-7">
          <mxGeometry relative="1" as="geometry" />
        </mxCell>
        <mxCell id="Wnv17UuATDxq_czJeIxD-4" value=".csv.gz" style="shape=cylinder3;whiteSpace=wrap;html=1;boundedLbl=1;backgroundOutline=1;size=15;" vertex="1" parent="1">
          <mxGeometry x="395" y="55" width="60" height="50" as="geometry" />
        </mxCell>
        <mxCell id="Wnv17UuATDxq_czJeIxD-9" value="" style="edgeStyle=orthogonalEdgeStyle;rounded=0;orthogonalLoop=1;jettySize=auto;html=1;" edge="1" parent="1" source="Wnv17UuATDxq_czJeIxD-7" target="Wnv17UuATDxq_czJeIxD-8">
          <mxGeometry relative="1" as="geometry" />
        </mxCell>
        <mxCell id="Wnv17UuATDxq_czJeIxD-7" value="Convert to .arrow" style="rounded=0;whiteSpace=wrap;html=1;" vertex="1" parent="1">
          <mxGeometry x="530" y="50" width="120" height="60" as="geometry" />
        </mxCell>
        <mxCell id="Wnv17UuATDxq_czJeIxD-8" value=".arrow" style="shape=cylinder3;whiteSpace=wrap;html=1;boundedLbl=1;backgroundOutline=1;size=15;" vertex="1" parent="1">
          <mxGeometry x="560" y="190" width="60" height="50" as="geometry" />
        </mxCell>
      </root>
    </mxGraphModel>
  </diagram>
</mxfile>
